<mxfile host="app.diagrams.net" modified="2021-04-06T13:26:41.108Z" agent="5.0 (X11)" etag="jDhWWhxCA4n_Av85w4FM" version="14.5.7" type="github" pages="2">
  <diagram id="xpGsFGaNRFK6pU6DxcJn" name="Page-1">
    <mxGraphModel dx="3220" dy="-860" grid="1" gridSize="10" guides="1" tooltips="1" connect="1" arrows="1" fold="1" page="1" pageScale="1" pageWidth="850" pageHeight="1100" math="0" shadow="0">
      <root>
        <mxCell id="0" />
        <mxCell id="1" parent="0" />
        <mxCell id="2JnKNKair-FOoR0NGAX1-1" value="Sign in" style="ellipse;whiteSpace=wrap;html=1;fillColor=#dae8fc;strokeColor=#6c8ebf;" parent="1" vertex="1">
          <mxGeometry x="130" y="2780" width="120" height="60" as="geometry" />
        </mxCell>
        <mxCell id="2JnKNKair-FOoR0NGAX1-2" value="Guest" style="shape=umlActor;verticalLabelPosition=bottom;verticalAlign=top;html=1;align=center;" parent="1" vertex="1">
          <mxGeometry x="50" y="2890" width="30" height="60" as="geometry" />
        </mxCell>
        <mxCell id="2JnKNKair-FOoR0NGAX1-3" value="Sign up" style="ellipse;whiteSpace=wrap;html=1;fillColor=#dae8fc;strokeColor=#6c8ebf;" parent="1" vertex="1">
          <mxGeometry x="130" y="2860" width="120" height="60" as="geometry" />
        </mxCell>
        <mxCell id="2JnKNKair-FOoR0NGAX1-4" value="View products" style="ellipse;whiteSpace=wrap;html=1;fillColor=#dae8fc;strokeColor=#6c8ebf;" parent="1" vertex="1">
          <mxGeometry x="130" y="3000" width="120" height="60" as="geometry" />
        </mxCell>
        <mxCell id="2JnKNKair-FOoR0NGAX1-5" value="View product details" style="ellipse;whiteSpace=wrap;html=1;fillColor=#dae8fc;strokeColor=#6c8ebf;" parent="1" vertex="1">
          <mxGeometry x="310" y="3090" width="120" height="60" as="geometry" />
        </mxCell>
        <mxCell id="2JnKNKair-FOoR0NGAX1-6" value="Search product" style="ellipse;whiteSpace=wrap;html=1;" parent="1" vertex="1">
          <mxGeometry x="300" y="2910" width="140" height="70" as="geometry" />
        </mxCell>
        <mxCell id="2JnKNKair-FOoR0NGAX1-7" value="Sort product" style="ellipse;whiteSpace=wrap;html=1;fillColor=#dae8fc;strokeColor=#6c8ebf;" parent="1" vertex="1">
          <mxGeometry x="285" y="2560" width="140" height="70" as="geometry" />
        </mxCell>
        <mxCell id="2JnKNKair-FOoR0NGAX1-8" value="Search by name" style="ellipse;whiteSpace=wrap;html=1;fillColor=#dae8fc;strokeColor=#6c8ebf;" parent="1" vertex="1">
          <mxGeometry x="490" y="2860" width="120" height="80" as="geometry" />
        </mxCell>
        <mxCell id="2JnKNKair-FOoR0NGAX1-9" value="Search by category" style="ellipse;whiteSpace=wrap;html=1;fillColor=#dae8fc;strokeColor=#6c8ebf;" parent="1" vertex="1">
          <mxGeometry x="490" y="2960" width="120" height="80" as="geometry" />
        </mxCell>
        <mxCell id="2JnKNKair-FOoR0NGAX1-10" value="" style="endArrow=classic;html=1;entryX=0;entryY=0.5;entryDx=0;entryDy=0;exitX=1;exitY=0.5;exitDx=0;exitDy=0;" parent="1" source="2JnKNKair-FOoR0NGAX1-6" target="2JnKNKair-FOoR0NGAX1-8" edge="1">
          <mxGeometry width="50" height="50" relative="1" as="geometry">
            <mxPoint x="320" y="3080" as="sourcePoint" />
            <mxPoint x="370" y="3030" as="targetPoint" />
          </mxGeometry>
        </mxCell>
        <mxCell id="2JnKNKair-FOoR0NGAX1-11" value="" style="endArrow=classic;html=1;entryX=0;entryY=0.5;entryDx=0;entryDy=0;exitX=1;exitY=0.5;exitDx=0;exitDy=0;" parent="1" source="2JnKNKair-FOoR0NGAX1-6" target="2JnKNKair-FOoR0NGAX1-9" edge="1">
          <mxGeometry width="50" height="50" relative="1" as="geometry">
            <mxPoint x="320" y="3080" as="sourcePoint" />
            <mxPoint x="370" y="3030" as="targetPoint" />
          </mxGeometry>
        </mxCell>
        <mxCell id="2JnKNKair-FOoR0NGAX1-12" value="" style="endArrow=classic;html=1;entryX=0;entryY=0.5;entryDx=0;entryDy=0;exitX=1;exitY=0.5;exitDx=0;exitDy=0;" parent="1" source="2JnKNKair-FOoR0NGAX1-4" target="2JnKNKair-FOoR0NGAX1-6" edge="1">
          <mxGeometry width="50" height="50" relative="1" as="geometry">
            <mxPoint x="440" y="2955" as="sourcePoint" />
            <mxPoint x="530" y="2970" as="targetPoint" />
          </mxGeometry>
        </mxCell>
        <mxCell id="2JnKNKair-FOoR0NGAX1-13" value="" style="endArrow=classic;html=1;entryX=0;entryY=0.5;entryDx=0;entryDy=0;exitX=1;exitY=0.5;exitDx=0;exitDy=0;" parent="1" source="2JnKNKair-FOoR0NGAX1-4" target="2JnKNKair-FOoR0NGAX1-5" edge="1">
          <mxGeometry width="50" height="50" relative="1" as="geometry">
            <mxPoint x="260" y="2950" as="sourcePoint" />
            <mxPoint x="302.52" y="3036.3900000000003" as="targetPoint" />
          </mxGeometry>
        </mxCell>
        <mxCell id="2JnKNKair-FOoR0NGAX1-14" value="" style="endArrow=classic;html=1;exitX=1;exitY=0.3333333333333333;exitDx=0;exitDy=0;exitPerimeter=0;entryX=0.006;entryY=0.621;entryDx=0;entryDy=0;entryPerimeter=0;" parent="1" source="2JnKNKair-FOoR0NGAX1-2" target="2JnKNKair-FOoR0NGAX1-3" edge="1">
          <mxGeometry width="50" height="50" relative="1" as="geometry">
            <mxPoint x="260" y="2950" as="sourcePoint" />
            <mxPoint x="150" y="2880" as="targetPoint" />
          </mxGeometry>
        </mxCell>
        <mxCell id="2JnKNKair-FOoR0NGAX1-15" value="" style="endArrow=classic;html=1;exitX=1;exitY=0.3333333333333333;exitDx=0;exitDy=0;exitPerimeter=0;entryX=0;entryY=0.5;entryDx=0;entryDy=0;" parent="1" source="2JnKNKair-FOoR0NGAX1-2" target="2JnKNKair-FOoR0NGAX1-1" edge="1">
          <mxGeometry width="50" height="50" relative="1" as="geometry">
            <mxPoint x="90" y="2920" as="sourcePoint" />
            <mxPoint x="260.72" y="2837.26" as="targetPoint" />
          </mxGeometry>
        </mxCell>
        <mxCell id="2JnKNKair-FOoR0NGAX1-16" value="" style="endArrow=classic;html=1;exitX=1;exitY=0.3333333333333333;exitDx=0;exitDy=0;exitPerimeter=0;entryX=0;entryY=0.5;entryDx=0;entryDy=0;" parent="1" source="2JnKNKair-FOoR0NGAX1-2" target="2JnKNKair-FOoR0NGAX1-4" edge="1">
          <mxGeometry width="50" height="50" relative="1" as="geometry">
            <mxPoint x="90" y="2920" as="sourcePoint" />
            <mxPoint x="255" y="2750" as="targetPoint" />
          </mxGeometry>
        </mxCell>
        <mxCell id="2JnKNKair-FOoR0NGAX1-17" value="Employee" style="shape=umlActor;verticalLabelPosition=bottom;verticalAlign=top;html=1;outlineConnect=0;" parent="1" vertex="1">
          <mxGeometry x="50" y="3150" width="30" height="60" as="geometry" />
        </mxCell>
        <mxCell id="2JnKNKair-FOoR0NGAX1-18" value="Confirm order" style="ellipse;whiteSpace=wrap;html=1;fillColor=#dae8fc;strokeColor=#6c8ebf;" parent="1" vertex="1">
          <mxGeometry x="-100" y="3430" width="120" height="80" as="geometry" />
        </mxCell>
        <mxCell id="2JnKNKair-FOoR0NGAX1-19" value="Check nearly exprire products" style="ellipse;whiteSpace=wrap;html=1;fillColor=#dae8fc;strokeColor=#6c8ebf;" parent="1" vertex="1">
          <mxGeometry x="-160" y="3310" width="120" height="70" as="geometry" />
        </mxCell>
        <mxCell id="2JnKNKair-FOoR0NGAX1-20" value="View orders" style="ellipse;whiteSpace=wrap;html=1;" parent="1" vertex="1">
          <mxGeometry x="-5" y="3310" width="140" height="70" as="geometry" />
        </mxCell>
        <mxCell id="2JnKNKair-FOoR0NGAX1-21" value="View order details" style="ellipse;whiteSpace=wrap;html=1;fillColor=#dae8fc;strokeColor=#6c8ebf;" parent="1" vertex="1">
          <mxGeometry x="100" y="3430" width="140" height="70" as="geometry" />
        </mxCell>
        <mxCell id="2JnKNKair-FOoR0NGAX1-22" value="" style="endArrow=classic;html=1;exitX=0.5;exitY=1;exitDx=0;exitDy=0;entryX=0.5;entryY=0;entryDx=0;entryDy=0;" parent="1" source="2JnKNKair-FOoR0NGAX1-20" target="2JnKNKair-FOoR0NGAX1-21" edge="1">
          <mxGeometry width="50" height="50" relative="1" as="geometry">
            <mxPoint x="320" y="3320" as="sourcePoint" />
            <mxPoint x="370" y="3270" as="targetPoint" />
          </mxGeometry>
        </mxCell>
        <mxCell id="2JnKNKair-FOoR0NGAX1-23" value="" style="endArrow=classic;html=1;exitX=0.5;exitY=1;exitDx=0;exitDy=0;entryX=0.5;entryY=0;entryDx=0;entryDy=0;" parent="1" source="2JnKNKair-FOoR0NGAX1-20" target="2JnKNKair-FOoR0NGAX1-18" edge="1">
          <mxGeometry width="50" height="50" relative="1" as="geometry">
            <mxPoint x="280" y="3320" as="sourcePoint" />
            <mxPoint x="330" y="3275" as="targetPoint" />
          </mxGeometry>
        </mxCell>
        <mxCell id="2JnKNKair-FOoR0NGAX1-24" value="" style="endArrow=classic;html=1;entryX=0.5;entryY=0;entryDx=0;entryDy=0;" parent="1" target="2JnKNKair-FOoR0NGAX1-20" edge="1">
          <mxGeometry width="50" height="50" relative="1" as="geometry">
            <mxPoint x="65" y="3240" as="sourcePoint" />
            <mxPoint x="370" y="3270" as="targetPoint" />
          </mxGeometry>
        </mxCell>
        <mxCell id="2JnKNKair-FOoR0NGAX1-25" value="" style="endArrow=classic;html=1;entryX=0.5;entryY=0;entryDx=0;entryDy=0;exitX=0.5;exitY=0.5;exitDx=0;exitDy=0;exitPerimeter=0;" parent="1" source="2JnKNKair-FOoR0NGAX1-17" target="2JnKNKair-FOoR0NGAX1-19" edge="1">
          <mxGeometry width="50" height="50" relative="1" as="geometry">
            <mxPoint x="65" y="3375" as="sourcePoint" />
            <mxPoint x="140" y="3335" as="targetPoint" />
          </mxGeometry>
        </mxCell>
        <mxCell id="2JnKNKair-FOoR0NGAX1-26" value="" style="endArrow=classic;html=1;dashed=1;exitX=0.5;exitY=0;exitDx=0;exitDy=0;exitPerimeter=0;" parent="1" source="2JnKNKair-FOoR0NGAX1-17" edge="1">
          <mxGeometry width="50" height="50" relative="1" as="geometry">
            <mxPoint x="320" y="3260" as="sourcePoint" />
            <mxPoint x="65" y="2980" as="targetPoint" />
          </mxGeometry>
        </mxCell>
        <mxCell id="2JnKNKair-FOoR0NGAX1-27" value="Customer" style="shape=umlActor;verticalLabelPosition=bottom;verticalAlign=top;html=1;outlineConnect=0;" parent="1" vertex="1">
          <mxGeometry x="-140" y="2890" width="30" height="60" as="geometry" />
        </mxCell>
        <mxCell id="2JnKNKair-FOoR0NGAX1-28" value="Place order" style="ellipse;whiteSpace=wrap;html=1;fillColor=#dae8fc;strokeColor=#6c8ebf;" parent="1" vertex="1">
          <mxGeometry x="-400" y="3080" width="120" height="80" as="geometry" />
        </mxCell>
        <mxCell id="2JnKNKair-FOoR0NGAX1-29" value="View history" style="ellipse;whiteSpace=wrap;html=1;fillColor=#dae8fc;strokeColor=#6c8ebf;" parent="1" vertex="1">
          <mxGeometry x="-400" y="3200" width="120" height="80" as="geometry" />
        </mxCell>
        <mxCell id="2JnKNKair-FOoR0NGAX1-30" value="View personal info" style="ellipse;whiteSpace=wrap;html=1;fillColor=#dae8fc;strokeColor=#6c8ebf;" parent="1" vertex="1">
          <mxGeometry x="-410" y="2770" width="140" height="70" as="geometry" />
        </mxCell>
        <mxCell id="2JnKNKair-FOoR0NGAX1-31" value="Edit personal info" style="ellipse;whiteSpace=wrap;html=1;fillColor=#dae8fc;strokeColor=#6c8ebf;" parent="1" vertex="1">
          <mxGeometry x="-410" y="2670" width="140" height="70" as="geometry" />
        </mxCell>
        <mxCell id="2JnKNKair-FOoR0NGAX1-32" value="View cart" style="ellipse;whiteSpace=wrap;html=1;fillColor=#dae8fc;strokeColor=#6c8ebf;" parent="1" vertex="1">
          <mxGeometry x="-410" y="2980" width="140" height="70" as="geometry" />
        </mxCell>
        <mxCell id="2JnKNKair-FOoR0NGAX1-33" value="Add item to cart" style="ellipse;whiteSpace=wrap;html=1;fillColor=#dae8fc;strokeColor=#6c8ebf;" parent="1" vertex="1">
          <mxGeometry x="-410" y="2880" width="140" height="70" as="geometry" />
        </mxCell>
        <mxCell id="2JnKNKair-FOoR0NGAX1-34" value="" style="endArrow=classic;html=1;entryX=1;entryY=0.5;entryDx=0;entryDy=0;exitX=0;exitY=0.3333333333333333;exitDx=0;exitDy=0;exitPerimeter=0;" parent="1" source="2JnKNKair-FOoR0NGAX1-27" target="2JnKNKair-FOoR0NGAX1-31" edge="1">
          <mxGeometry width="50" height="50" relative="1" as="geometry">
            <mxPoint x="-120" y="3070" as="sourcePoint" />
            <mxPoint x="-70" y="3020" as="targetPoint" />
          </mxGeometry>
        </mxCell>
        <mxCell id="2JnKNKair-FOoR0NGAX1-35" value="" style="endArrow=classic;html=1;entryX=1;entryY=0.5;entryDx=0;entryDy=0;exitX=0;exitY=0.3333333333333333;exitDx=0;exitDy=0;exitPerimeter=0;" parent="1" source="2JnKNKair-FOoR0NGAX1-27" target="2JnKNKair-FOoR0NGAX1-30" edge="1">
          <mxGeometry width="50" height="50" relative="1" as="geometry">
            <mxPoint x="-140" y="2910" as="sourcePoint" />
            <mxPoint x="-260" y="2705" as="targetPoint" />
          </mxGeometry>
        </mxCell>
        <mxCell id="2JnKNKair-FOoR0NGAX1-36" value="" style="endArrow=classic;html=1;entryX=1;entryY=0.5;entryDx=0;entryDy=0;exitX=0;exitY=0.3333333333333333;exitDx=0;exitDy=0;exitPerimeter=0;" parent="1" source="2JnKNKair-FOoR0NGAX1-27" target="2JnKNKair-FOoR0NGAX1-33" edge="1">
          <mxGeometry width="50" height="50" relative="1" as="geometry">
            <mxPoint x="-130" y="2920" as="sourcePoint" />
            <mxPoint x="-260" y="2805" as="targetPoint" />
          </mxGeometry>
        </mxCell>
        <mxCell id="2JnKNKair-FOoR0NGAX1-37" value="" style="endArrow=classic;html=1;entryX=1;entryY=0.5;entryDx=0;entryDy=0;exitX=0;exitY=0.3333333333333333;exitDx=0;exitDy=0;exitPerimeter=0;" parent="1" source="2JnKNKair-FOoR0NGAX1-27" target="2JnKNKair-FOoR0NGAX1-32" edge="1">
          <mxGeometry width="50" height="50" relative="1" as="geometry">
            <mxPoint x="-130" y="2920" as="sourcePoint" />
            <mxPoint x="-260" y="2925" as="targetPoint" />
          </mxGeometry>
        </mxCell>
        <mxCell id="2JnKNKair-FOoR0NGAX1-38" value="" style="endArrow=classic;html=1;entryX=1;entryY=0.5;entryDx=0;entryDy=0;exitX=0;exitY=0.3333333333333333;exitDx=0;exitDy=0;exitPerimeter=0;" parent="1" source="2JnKNKair-FOoR0NGAX1-27" target="2JnKNKair-FOoR0NGAX1-28" edge="1">
          <mxGeometry width="50" height="50" relative="1" as="geometry">
            <mxPoint x="-130" y="2920" as="sourcePoint" />
            <mxPoint x="-260" y="3025" as="targetPoint" />
          </mxGeometry>
        </mxCell>
        <mxCell id="2JnKNKair-FOoR0NGAX1-39" value="" style="endArrow=classic;html=1;entryX=0;entryY=0.3333333333333333;entryDx=0;entryDy=0;exitX=1;exitY=0.3333333333333333;exitDx=0;exitDy=0;exitPerimeter=0;entryPerimeter=0;dashed=1;" parent="1" source="2JnKNKair-FOoR0NGAX1-27" target="2JnKNKair-FOoR0NGAX1-2" edge="1">
          <mxGeometry width="50" height="50" relative="1" as="geometry">
            <mxPoint x="-120" y="2930" as="sourcePoint" />
            <mxPoint x="-250" y="3035" as="targetPoint" />
          </mxGeometry>
        </mxCell>
        <mxCell id="2JnKNKair-FOoR0NGAX1-40" value="" style="endArrow=classic;html=1;exitX=0;exitY=0.3333333333333333;exitDx=0;exitDy=0;exitPerimeter=0;entryX=1;entryY=0.5;entryDx=0;entryDy=0;" parent="1" source="2JnKNKair-FOoR0NGAX1-27" target="2JnKNKair-FOoR0NGAX1-29" edge="1">
          <mxGeometry width="50" height="50" relative="1" as="geometry">
            <mxPoint x="50" y="3140" as="sourcePoint" />
            <mxPoint x="100" y="3090" as="targetPoint" />
          </mxGeometry>
        </mxCell>
        <mxCell id="2JnKNKair-FOoR0NGAX1-41" value="Manager" style="shape=umlActor;verticalLabelPosition=bottom;verticalAlign=top;html=1;outlineConnect=0;align=center;" parent="1" vertex="1">
          <mxGeometry x="50" y="2600" width="30" height="60" as="geometry" />
        </mxCell>
        <mxCell id="2JnKNKair-FOoR0NGAX1-42" value="Put product on sale" style="ellipse;whiteSpace=wrap;html=1;fillColor=#dae8fc;strokeColor=#6c8ebf;" parent="1" vertex="1">
          <mxGeometry x="-40" y="2465" width="120" height="80" as="geometry" />
        </mxCell>
        <mxCell id="2JnKNKair-FOoR0NGAX1-43" value="Edit product details" style="ellipse;whiteSpace=wrap;html=1;fillColor=#dae8fc;strokeColor=#6c8ebf;" parent="1" vertex="1">
          <mxGeometry x="300" y="2450" width="140" height="70" as="geometry" />
        </mxCell>
        <mxCell id="2JnKNKair-FOoR0NGAX1-44" value="Delete product" style="ellipse;whiteSpace=wrap;html=1;fillColor=#dae8fc;strokeColor=#6c8ebf;" parent="1" vertex="1">
          <mxGeometry x="130" y="2340" width="140" height="70" as="geometry" />
        </mxCell>
        <mxCell id="2JnKNKair-FOoR0NGAX1-45" value="View accounts" style="ellipse;whiteSpace=wrap;html=1;" parent="1" vertex="1">
          <mxGeometry x="-250" y="2470" width="140" height="70" as="geometry" />
        </mxCell>
        <mxCell id="2JnKNKair-FOoR0NGAX1-46" value="View account details" style="ellipse;whiteSpace=wrap;html=1;fillColor=#dae8fc;strokeColor=#6c8ebf;" parent="1" vertex="1">
          <mxGeometry x="-410" y="2340" width="140" height="70" as="geometry" />
        </mxCell>
        <mxCell id="2JnKNKair-FOoR0NGAX1-47" value="Edit account details" style="ellipse;whiteSpace=wrap;html=1;fillColor=#dae8fc;strokeColor=#6c8ebf;" parent="1" vertex="1">
          <mxGeometry x="-90" y="2340" width="140" height="70" as="geometry" />
        </mxCell>
        <mxCell id="2JnKNKair-FOoR0NGAX1-48" value="Delete account" style="ellipse;whiteSpace=wrap;html=1;fillColor=#dae8fc;strokeColor=#6c8ebf;" parent="1" vertex="1">
          <mxGeometry x="-250" y="2340" width="140" height="70" as="geometry" />
        </mxCell>
        <mxCell id="2JnKNKair-FOoR0NGAX1-49" value="" style="endArrow=classic;html=1;entryX=0.5;entryY=1;entryDx=0;entryDy=0;exitX=0.5;exitY=0;exitDx=0;exitDy=0;" parent="1" source="2JnKNKair-FOoR0NGAX1-45" target="2JnKNKair-FOoR0NGAX1-46" edge="1">
          <mxGeometry width="50" height="50" relative="1" as="geometry">
            <mxPoint x="-110" y="2650" as="sourcePoint" />
            <mxPoint x="-60" y="2600" as="targetPoint" />
          </mxGeometry>
        </mxCell>
        <mxCell id="2JnKNKair-FOoR0NGAX1-50" value="" style="endArrow=classic;html=1;entryX=0.5;entryY=1;entryDx=0;entryDy=0;exitX=0.5;exitY=0;exitDx=0;exitDy=0;" parent="1" source="2JnKNKair-FOoR0NGAX1-45" target="2JnKNKair-FOoR0NGAX1-48" edge="1">
          <mxGeometry width="50" height="50" relative="1" as="geometry">
            <mxPoint x="60" y="2470" as="sourcePoint" />
            <mxPoint x="-100" y="2420" as="targetPoint" />
          </mxGeometry>
        </mxCell>
        <mxCell id="2JnKNKair-FOoR0NGAX1-51" value="" style="endArrow=classic;html=1;entryX=0.5;entryY=1;entryDx=0;entryDy=0;exitX=0.5;exitY=0;exitDx=0;exitDy=0;" parent="1" source="2JnKNKair-FOoR0NGAX1-45" target="2JnKNKair-FOoR0NGAX1-47" edge="1">
          <mxGeometry width="50" height="50" relative="1" as="geometry">
            <mxPoint x="60" y="2470" as="sourcePoint" />
            <mxPoint x="60" y="2420" as="targetPoint" />
          </mxGeometry>
        </mxCell>
        <mxCell id="2JnKNKair-FOoR0NGAX1-52" value="" style="endArrow=classic;html=1;entryX=0.5;entryY=1;entryDx=0;entryDy=0;exitX=0.5;exitY=0;exitDx=0;exitDy=0;exitPerimeter=0;" parent="1" source="2JnKNKair-FOoR0NGAX1-41" target="2JnKNKair-FOoR0NGAX1-45" edge="1">
          <mxGeometry width="50" height="50" relative="1" as="geometry">
            <mxPoint x="60" y="2470" as="sourcePoint" />
            <mxPoint x="220" y="2420" as="targetPoint" />
          </mxGeometry>
        </mxCell>
        <mxCell id="2JnKNKair-FOoR0NGAX1-53" value="" style="endArrow=classic;html=1;entryX=0.937;entryY=0.208;entryDx=0;entryDy=0;exitX=0.5;exitY=0;exitDx=0;exitDy=0;exitPerimeter=0;entryPerimeter=0;" parent="1" source="2JnKNKair-FOoR0NGAX1-41" target="2JnKNKair-FOoR0NGAX1-59" edge="1">
          <mxGeometry width="50" height="50" relative="1" as="geometry">
            <mxPoint x="75" y="2610" as="sourcePoint" />
            <mxPoint x="75" y="2540" as="targetPoint" />
          </mxGeometry>
        </mxCell>
        <mxCell id="2JnKNKair-FOoR0NGAX1-54" value="" style="endArrow=classic;html=1;entryX=0.5;entryY=0;entryDx=0;entryDy=0;entryPerimeter=0;dashed=1;" parent="1" target="2JnKNKair-FOoR0NGAX1-2" edge="1">
          <mxGeometry width="50" height="50" relative="1" as="geometry">
            <mxPoint x="65" y="2680" as="sourcePoint" />
            <mxPoint x="-60" y="2440" as="targetPoint" />
          </mxGeometry>
        </mxCell>
        <mxCell id="2JnKNKair-FOoR0NGAX1-55" value="" style="endArrow=classic;html=1;entryX=0.5;entryY=1;entryDx=0;entryDy=0;exitX=0.5;exitY=0;exitDx=0;exitDy=0;exitPerimeter=0;" parent="1" source="2JnKNKair-FOoR0NGAX1-41" target="2JnKNKair-FOoR0NGAX1-42" edge="1">
          <mxGeometry width="50" height="50" relative="1" as="geometry">
            <mxPoint x="-280" y="2840" as="sourcePoint" />
            <mxPoint x="-230" y="2790" as="targetPoint" />
          </mxGeometry>
        </mxCell>
        <mxCell id="2JnKNKair-FOoR0NGAX1-56" style="rounded=0;orthogonalLoop=1;jettySize=auto;html=1;" parent="1" source="2JnKNKair-FOoR0NGAX1-59" target="2JnKNKair-FOoR0NGAX1-44" edge="1">
          <mxGeometry relative="1" as="geometry" />
        </mxCell>
        <mxCell id="2JnKNKair-FOoR0NGAX1-57" style="rounded=0;orthogonalLoop=1;jettySize=auto;html=1;" parent="1" source="2JnKNKair-FOoR0NGAX1-59" target="2JnKNKair-FOoR0NGAX1-43" edge="1">
          <mxGeometry relative="1" as="geometry" />
        </mxCell>
        <mxCell id="2JnKNKair-FOoR0NGAX1-58" style="edgeStyle=none;rounded=0;orthogonalLoop=1;jettySize=auto;html=1;" parent="1" source="2JnKNKair-FOoR0NGAX1-59" target="2JnKNKair-FOoR0NGAX1-7" edge="1">
          <mxGeometry relative="1" as="geometry" />
        </mxCell>
        <mxCell id="2JnKNKair-FOoR0NGAX1-59" value="Manage products" style="ellipse;whiteSpace=wrap;html=1;" parent="1" vertex="1">
          <mxGeometry x="100" y="2465" width="140" height="70" as="geometry" />
        </mxCell>
      </root>
    </mxGraphModel>
  </diagram>
  <diagram id="CV_dOH4v3dzSyQ_GkR7s" name="Page-2">
    <mxGraphModel dx="1422" dy="804" grid="1" gridSize="10" guides="1" tooltips="1" connect="1" arrows="1" fold="1" page="1" pageScale="1" pageWidth="850" pageHeight="1100" math="0" shadow="0">
      <root>
        <mxCell id="Z0kGMV7HuKqx4YH1Jn0N-0" />
        <mxCell id="Z0kGMV7HuKqx4YH1Jn0N-1" parent="Z0kGMV7HuKqx4YH1Jn0N-0" />
        <mxCell id="gnlTn843PNFMBwR6q5YU-0" value="Customer" style="shape=umlActor;verticalLabelPosition=bottom;verticalAlign=top;html=1;outlineConnect=0;" vertex="1" parent="Z0kGMV7HuKqx4YH1Jn0N-1">
          <mxGeometry x="140" y="80" width="30" height="60" as="geometry" />
        </mxCell>
        <mxCell id="gnlTn843PNFMBwR6q5YU-1" value="Employee" style="shape=umlActor;verticalLabelPosition=bottom;verticalAlign=top;html=1;outlineConnect=0;" vertex="1" parent="Z0kGMV7HuKqx4YH1Jn0N-1">
          <mxGeometry x="230" y="80" width="30" height="60" as="geometry" />
        </mxCell>
        <mxCell id="gnlTn843PNFMBwR6q5YU-2" style="edgeStyle=orthogonalEdgeStyle;rounded=0;orthogonalLoop=1;jettySize=auto;html=1;entryX=0;entryY=0.5;entryDx=0;entryDy=0;" edge="1" parent="Z0kGMV7HuKqx4YH1Jn0N-1" target="gnlTn843PNFMBwR6q5YU-43">
          <mxGeometry relative="1" as="geometry">
            <mxPoint x="1000" y="1700" as="sourcePoint" />
          </mxGeometry>
        </mxCell>
        <mxCell id="gnlTn843PNFMBwR6q5YU-3" style="edgeStyle=orthogonalEdgeStyle;rounded=0;orthogonalLoop=1;jettySize=auto;html=1;entryX=0;entryY=0.5;entryDx=0;entryDy=0;" edge="1" parent="Z0kGMV7HuKqx4YH1Jn0N-1" target="gnlTn843PNFMBwR6q5YU-48">
          <mxGeometry relative="1" as="geometry">
            <mxPoint x="1000" y="1700" as="sourcePoint" />
          </mxGeometry>
        </mxCell>
        <mxCell id="gnlTn843PNFMBwR6q5YU-4" style="edgeStyle=orthogonalEdgeStyle;rounded=0;orthogonalLoop=1;jettySize=auto;html=1;entryX=0;entryY=0.5;entryDx=0;entryDy=0;" edge="1" parent="Z0kGMV7HuKqx4YH1Jn0N-1" target="gnlTn843PNFMBwR6q5YU-49">
          <mxGeometry relative="1" as="geometry">
            <mxPoint x="1000" y="1700" as="sourcePoint" />
          </mxGeometry>
        </mxCell>
        <mxCell id="gnlTn843PNFMBwR6q5YU-5" value="Manager" style="shape=umlActor;verticalLabelPosition=bottom;verticalAlign=top;html=1;outlineConnect=0;" vertex="1" parent="Z0kGMV7HuKqx4YH1Jn0N-1">
          <mxGeometry x="980" y="1820" width="30" height="60" as="geometry" />
        </mxCell>
        <mxCell id="gnlTn843PNFMBwR6q5YU-6" style="edgeStyle=orthogonalEdgeStyle;rounded=0;orthogonalLoop=1;jettySize=auto;html=1;entryX=0;entryY=0.5;entryDx=0;entryDy=0;" edge="1" parent="Z0kGMV7HuKqx4YH1Jn0N-1" source="gnlTn843PNFMBwR6q5YU-12" target="gnlTn843PNFMBwR6q5YU-15">
          <mxGeometry relative="1" as="geometry" />
        </mxCell>
        <mxCell id="gnlTn843PNFMBwR6q5YU-7" style="edgeStyle=orthogonalEdgeStyle;rounded=0;orthogonalLoop=1;jettySize=auto;html=1;entryX=0;entryY=0.625;entryDx=0;entryDy=0;entryPerimeter=0;" edge="1" parent="Z0kGMV7HuKqx4YH1Jn0N-1" source="gnlTn843PNFMBwR6q5YU-12" target="gnlTn843PNFMBwR6q5YU-16">
          <mxGeometry relative="1" as="geometry" />
        </mxCell>
        <mxCell id="gnlTn843PNFMBwR6q5YU-8" style="edgeStyle=orthogonalEdgeStyle;rounded=0;orthogonalLoop=1;jettySize=auto;html=1;entryX=0;entryY=0.5;entryDx=0;entryDy=0;" edge="1" parent="Z0kGMV7HuKqx4YH1Jn0N-1" source="gnlTn843PNFMBwR6q5YU-12" target="gnlTn843PNFMBwR6q5YU-19">
          <mxGeometry relative="1" as="geometry" />
        </mxCell>
        <mxCell id="gnlTn843PNFMBwR6q5YU-9" style="edgeStyle=orthogonalEdgeStyle;rounded=0;orthogonalLoop=1;jettySize=auto;html=1;entryX=0;entryY=0.5;entryDx=0;entryDy=0;" edge="1" parent="Z0kGMV7HuKqx4YH1Jn0N-1" source="gnlTn843PNFMBwR6q5YU-12" target="gnlTn843PNFMBwR6q5YU-26">
          <mxGeometry relative="1" as="geometry" />
        </mxCell>
        <mxCell id="gnlTn843PNFMBwR6q5YU-10" style="edgeStyle=orthogonalEdgeStyle;rounded=0;orthogonalLoop=1;jettySize=auto;html=1;entryX=0;entryY=0.5;entryDx=0;entryDy=0;" edge="1" parent="Z0kGMV7HuKqx4YH1Jn0N-1" source="gnlTn843PNFMBwR6q5YU-12" target="gnlTn843PNFMBwR6q5YU-25">
          <mxGeometry relative="1" as="geometry" />
        </mxCell>
        <mxCell id="gnlTn843PNFMBwR6q5YU-11" style="edgeStyle=orthogonalEdgeStyle;rounded=0;orthogonalLoop=1;jettySize=auto;html=1;entryX=0;entryY=0.5;entryDx=0;entryDy=0;" edge="1" parent="Z0kGMV7HuKqx4YH1Jn0N-1" source="gnlTn843PNFMBwR6q5YU-12" target="gnlTn843PNFMBwR6q5YU-72">
          <mxGeometry relative="1" as="geometry">
            <Array as="points">
              <mxPoint x="1120" y="615" />
              <mxPoint x="1120" y="430" />
            </Array>
          </mxGeometry>
        </mxCell>
        <mxCell id="gnlTn843PNFMBwR6q5YU-12" value="Customer" style="shape=umlActor;verticalLabelPosition=bottom;verticalAlign=top;html=1;outlineConnect=0;" vertex="1" parent="Z0kGMV7HuKqx4YH1Jn0N-1">
          <mxGeometry x="1040" y="585" width="30" height="60" as="geometry" />
        </mxCell>
        <mxCell id="gnlTn843PNFMBwR6q5YU-13" style="edgeStyle=orthogonalEdgeStyle;rounded=0;orthogonalLoop=1;jettySize=auto;html=1;exitX=1;exitY=0;exitDx=0;exitDy=0;" edge="1" parent="Z0kGMV7HuKqx4YH1Jn0N-1" source="gnlTn843PNFMBwR6q5YU-15" target="gnlTn843PNFMBwR6q5YU-68">
          <mxGeometry relative="1" as="geometry" />
        </mxCell>
        <mxCell id="gnlTn843PNFMBwR6q5YU-14" style="edgeStyle=orthogonalEdgeStyle;rounded=0;orthogonalLoop=1;jettySize=auto;html=1;exitX=1;exitY=1;exitDx=0;exitDy=0;" edge="1" parent="Z0kGMV7HuKqx4YH1Jn0N-1" source="gnlTn843PNFMBwR6q5YU-15" target="gnlTn843PNFMBwR6q5YU-69">
          <mxGeometry relative="1" as="geometry" />
        </mxCell>
        <mxCell id="gnlTn843PNFMBwR6q5YU-15" value="Manage personal account" style="ellipse;whiteSpace=wrap;html=1;" vertex="1" parent="Z0kGMV7HuKqx4YH1Jn0N-1">
          <mxGeometry x="1160" y="165" width="120" height="80" as="geometry" />
        </mxCell>
        <mxCell id="gnlTn843PNFMBwR6q5YU-16" value="View products" style="ellipse;whiteSpace=wrap;html=1;fillColor=#d5e8d4;strokeColor=#82b366;" vertex="1" parent="Z0kGMV7HuKqx4YH1Jn0N-1">
          <mxGeometry x="1200" y="285" width="120" height="80" as="geometry" />
        </mxCell>
        <mxCell id="gnlTn843PNFMBwR6q5YU-17" style="edgeStyle=orthogonalEdgeStyle;rounded=0;orthogonalLoop=1;jettySize=auto;html=1;entryX=-0.003;entryY=0.622;entryDx=0;entryDy=0;entryPerimeter=0;" edge="1" parent="Z0kGMV7HuKqx4YH1Jn0N-1" source="gnlTn843PNFMBwR6q5YU-19" target="gnlTn843PNFMBwR6q5YU-20">
          <mxGeometry relative="1" as="geometry" />
        </mxCell>
        <mxCell id="gnlTn843PNFMBwR6q5YU-18" style="edgeStyle=orthogonalEdgeStyle;rounded=0;orthogonalLoop=1;jettySize=auto;html=1;" edge="1" parent="Z0kGMV7HuKqx4YH1Jn0N-1" source="gnlTn843PNFMBwR6q5YU-19" target="gnlTn843PNFMBwR6q5YU-21">
          <mxGeometry relative="1" as="geometry" />
        </mxCell>
        <mxCell id="gnlTn843PNFMBwR6q5YU-19" value="Search products" style="ellipse;whiteSpace=wrap;html=1;fillColor=#d5e8d4;strokeColor=#82b366;" vertex="1" parent="Z0kGMV7HuKqx4YH1Jn0N-1">
          <mxGeometry x="1180" y="575" width="120" height="80" as="geometry" />
        </mxCell>
        <mxCell id="gnlTn843PNFMBwR6q5YU-20" value="Search by name" style="ellipse;whiteSpace=wrap;html=1;" vertex="1" parent="Z0kGMV7HuKqx4YH1Jn0N-1">
          <mxGeometry x="1360" y="515" width="120" height="80" as="geometry" />
        </mxCell>
        <mxCell id="gnlTn843PNFMBwR6q5YU-21" value="Search by category" style="ellipse;whiteSpace=wrap;html=1;" vertex="1" parent="Z0kGMV7HuKqx4YH1Jn0N-1">
          <mxGeometry x="1360" y="625" width="120" height="80" as="geometry" />
        </mxCell>
        <mxCell id="gnlTn843PNFMBwR6q5YU-22" value="Place order" style="ellipse;whiteSpace=wrap;html=1;fillColor=#dae8fc;strokeColor=#6c8ebf;" vertex="1" parent="Z0kGMV7HuKqx4YH1Jn0N-1">
          <mxGeometry x="1410" y="905" width="120" height="80" as="geometry" />
        </mxCell>
        <mxCell id="gnlTn843PNFMBwR6q5YU-23" style="edgeStyle=orthogonalEdgeStyle;rounded=0;orthogonalLoop=1;jettySize=auto;html=1;" edge="1" parent="Z0kGMV7HuKqx4YH1Jn0N-1" source="gnlTn843PNFMBwR6q5YU-25" target="gnlTn843PNFMBwR6q5YU-22">
          <mxGeometry relative="1" as="geometry">
            <Array as="points">
              <mxPoint x="1240" y="945" />
            </Array>
          </mxGeometry>
        </mxCell>
        <mxCell id="gnlTn843PNFMBwR6q5YU-24" style="edgeStyle=orthogonalEdgeStyle;rounded=0;orthogonalLoop=1;jettySize=auto;html=1;" edge="1" parent="Z0kGMV7HuKqx4YH1Jn0N-1" source="gnlTn843PNFMBwR6q5YU-25" target="gnlTn843PNFMBwR6q5YU-70">
          <mxGeometry relative="1" as="geometry">
            <Array as="points">
              <mxPoint x="1240" y="760" />
            </Array>
          </mxGeometry>
        </mxCell>
        <mxCell id="gnlTn843PNFMBwR6q5YU-25" value="Manage cart" style="ellipse;whiteSpace=wrap;html=1;" vertex="1" parent="Z0kGMV7HuKqx4YH1Jn0N-1">
          <mxGeometry x="1180" y="835" width="120" height="80" as="geometry" />
        </mxCell>
        <mxCell id="gnlTn843PNFMBwR6q5YU-26" value="View history" style="ellipse;whiteSpace=wrap;html=1;fillColor=#dae8fc;strokeColor=#6c8ebf;" vertex="1" parent="Z0kGMV7HuKqx4YH1Jn0N-1">
          <mxGeometry x="1180" y="1015" width="120" height="80" as="geometry" />
        </mxCell>
        <mxCell id="gnlTn843PNFMBwR6q5YU-27" style="edgeStyle=orthogonalEdgeStyle;rounded=0;orthogonalLoop=1;jettySize=auto;html=1;" edge="1" parent="Z0kGMV7HuKqx4YH1Jn0N-1" source="gnlTn843PNFMBwR6q5YU-29" target="gnlTn843PNFMBwR6q5YU-33">
          <mxGeometry relative="1" as="geometry" />
        </mxCell>
        <mxCell id="gnlTn843PNFMBwR6q5YU-28" style="edgeStyle=orthogonalEdgeStyle;rounded=0;orthogonalLoop=1;jettySize=auto;html=1;entryX=0;entryY=0.5;entryDx=0;entryDy=0;" edge="1" parent="Z0kGMV7HuKqx4YH1Jn0N-1" source="gnlTn843PNFMBwR6q5YU-29" target="gnlTn843PNFMBwR6q5YU-35">
          <mxGeometry relative="1" as="geometry" />
        </mxCell>
        <mxCell id="gnlTn843PNFMBwR6q5YU-29" value="Employee" style="shape=umlActor;verticalLabelPosition=bottom;verticalAlign=top;html=1;outlineConnect=0;" vertex="1" parent="Z0kGMV7HuKqx4YH1Jn0N-1">
          <mxGeometry x="140" y="1940" width="30" height="60" as="geometry" />
        </mxCell>
        <mxCell id="gnlTn843PNFMBwR6q5YU-30" value="" style="edgeStyle=orthogonalEdgeStyle;rounded=0;orthogonalLoop=1;jettySize=auto;html=1;" edge="1" parent="Z0kGMV7HuKqx4YH1Jn0N-1" source="gnlTn843PNFMBwR6q5YU-33" target="gnlTn843PNFMBwR6q5YU-34">
          <mxGeometry relative="1" as="geometry">
            <Array as="points">
              <mxPoint x="310" y="1920" />
            </Array>
          </mxGeometry>
        </mxCell>
        <mxCell id="gnlTn843PNFMBwR6q5YU-31" style="edgeStyle=orthogonalEdgeStyle;rounded=0;orthogonalLoop=1;jettySize=auto;html=1;" edge="1" parent="Z0kGMV7HuKqx4YH1Jn0N-1" source="gnlTn843PNFMBwR6q5YU-33" target="gnlTn843PNFMBwR6q5YU-74">
          <mxGeometry relative="1" as="geometry" />
        </mxCell>
        <mxCell id="gnlTn843PNFMBwR6q5YU-32" style="edgeStyle=orthogonalEdgeStyle;rounded=0;orthogonalLoop=1;jettySize=auto;html=1;entryX=0;entryY=0.5;entryDx=0;entryDy=0;" edge="1" parent="Z0kGMV7HuKqx4YH1Jn0N-1" source="gnlTn843PNFMBwR6q5YU-33" target="gnlTn843PNFMBwR6q5YU-73">
          <mxGeometry relative="1" as="geometry" />
        </mxCell>
        <mxCell id="gnlTn843PNFMBwR6q5YU-33" value="Manage order line" style="ellipse;whiteSpace=wrap;html=1;" vertex="1" parent="Z0kGMV7HuKqx4YH1Jn0N-1">
          <mxGeometry x="220" y="1760" width="120" height="80" as="geometry" />
        </mxCell>
        <mxCell id="gnlTn843PNFMBwR6q5YU-34" value="Confirm order" style="ellipse;whiteSpace=wrap;html=1;fillColor=#dae8fc;strokeColor=#6c8ebf;" vertex="1" parent="Z0kGMV7HuKqx4YH1Jn0N-1">
          <mxGeometry x="440" y="1880" width="120" height="80" as="geometry" />
        </mxCell>
        <mxCell id="gnlTn843PNFMBwR6q5YU-35" value="Check nearly exprire products" style="ellipse;whiteSpace=wrap;html=1;fillColor=#dae8fc;strokeColor=#6c8ebf;" vertex="1" parent="Z0kGMV7HuKqx4YH1Jn0N-1">
          <mxGeometry x="390" y="2060" width="120" height="80" as="geometry" />
        </mxCell>
        <mxCell id="gnlTn843PNFMBwR6q5YU-36" value="Manager" style="shape=umlActor;verticalLabelPosition=bottom;verticalAlign=top;html=1;outlineConnect=0;" vertex="1" parent="Z0kGMV7HuKqx4YH1Jn0N-1">
          <mxGeometry x="140" y="200" width="30" height="60" as="geometry" />
        </mxCell>
        <mxCell id="gnlTn843PNFMBwR6q5YU-37" style="edgeStyle=orthogonalEdgeStyle;rounded=0;orthogonalLoop=1;jettySize=auto;html=1;exitX=1;exitY=0;exitDx=0;exitDy=0;entryX=0;entryY=0.5;entryDx=0;entryDy=0;" edge="1" parent="Z0kGMV7HuKqx4YH1Jn0N-1" source="gnlTn843PNFMBwR6q5YU-43" target="gnlTn843PNFMBwR6q5YU-75">
          <mxGeometry relative="1" as="geometry" />
        </mxCell>
        <mxCell id="gnlTn843PNFMBwR6q5YU-38" style="edgeStyle=orthogonalEdgeStyle;rounded=0;orthogonalLoop=1;jettySize=auto;html=1;exitX=1;exitY=0;exitDx=0;exitDy=0;entryX=0;entryY=0.5;entryDx=0;entryDy=0;" edge="1" parent="Z0kGMV7HuKqx4YH1Jn0N-1" source="gnlTn843PNFMBwR6q5YU-43" target="gnlTn843PNFMBwR6q5YU-76">
          <mxGeometry relative="1" as="geometry" />
        </mxCell>
        <mxCell id="gnlTn843PNFMBwR6q5YU-39" style="edgeStyle=orthogonalEdgeStyle;rounded=0;orthogonalLoop=1;jettySize=auto;html=1;exitX=1;exitY=0.5;exitDx=0;exitDy=0;" edge="1" parent="Z0kGMV7HuKqx4YH1Jn0N-1" source="gnlTn843PNFMBwR6q5YU-43" target="gnlTn843PNFMBwR6q5YU-77">
          <mxGeometry relative="1" as="geometry" />
        </mxCell>
        <mxCell id="gnlTn843PNFMBwR6q5YU-40" style="edgeStyle=orthogonalEdgeStyle;rounded=0;orthogonalLoop=1;jettySize=auto;html=1;entryX=0;entryY=0.5;entryDx=0;entryDy=0;" edge="1" parent="Z0kGMV7HuKqx4YH1Jn0N-1" source="gnlTn843PNFMBwR6q5YU-43" target="gnlTn843PNFMBwR6q5YU-78">
          <mxGeometry relative="1" as="geometry" />
        </mxCell>
        <mxCell id="gnlTn843PNFMBwR6q5YU-41" style="edgeStyle=orthogonalEdgeStyle;rounded=0;orthogonalLoop=1;jettySize=auto;html=1;exitX=0.5;exitY=0;exitDx=0;exitDy=0;entryX=0;entryY=0.5;entryDx=0;entryDy=0;" edge="1" parent="Z0kGMV7HuKqx4YH1Jn0N-1" source="gnlTn843PNFMBwR6q5YU-43" target="gnlTn843PNFMBwR6q5YU-86">
          <mxGeometry relative="1" as="geometry" />
        </mxCell>
        <mxCell id="gnlTn843PNFMBwR6q5YU-42" style="edgeStyle=orthogonalEdgeStyle;rounded=0;orthogonalLoop=1;jettySize=auto;html=1;entryX=0;entryY=0.5;entryDx=0;entryDy=0;" edge="1" parent="Z0kGMV7HuKqx4YH1Jn0N-1" source="gnlTn843PNFMBwR6q5YU-43" target="gnlTn843PNFMBwR6q5YU-85">
          <mxGeometry relative="1" as="geometry">
            <Array as="points">
              <mxPoint x="1140" y="1220" />
            </Array>
          </mxGeometry>
        </mxCell>
        <mxCell id="gnlTn843PNFMBwR6q5YU-43" value="Manage products" style="ellipse;whiteSpace=wrap;html=1;" vertex="1" parent="Z0kGMV7HuKqx4YH1Jn0N-1">
          <mxGeometry x="1070" y="1430" width="120" height="80" as="geometry" />
        </mxCell>
        <mxCell id="gnlTn843PNFMBwR6q5YU-44" style="edgeStyle=orthogonalEdgeStyle;rounded=0;orthogonalLoop=1;jettySize=auto;html=1;exitX=1;exitY=0;exitDx=0;exitDy=0;entryX=0;entryY=0.5;entryDx=0;entryDy=0;" edge="1" parent="Z0kGMV7HuKqx4YH1Jn0N-1" source="gnlTn843PNFMBwR6q5YU-48" target="gnlTn843PNFMBwR6q5YU-79">
          <mxGeometry relative="1" as="geometry" />
        </mxCell>
        <mxCell id="gnlTn843PNFMBwR6q5YU-45" style="edgeStyle=orthogonalEdgeStyle;rounded=0;orthogonalLoop=1;jettySize=auto;html=1;exitX=1;exitY=0.5;exitDx=0;exitDy=0;" edge="1" parent="Z0kGMV7HuKqx4YH1Jn0N-1" source="gnlTn843PNFMBwR6q5YU-48" target="gnlTn843PNFMBwR6q5YU-80">
          <mxGeometry relative="1" as="geometry" />
        </mxCell>
        <mxCell id="gnlTn843PNFMBwR6q5YU-46" style="edgeStyle=orthogonalEdgeStyle;rounded=0;orthogonalLoop=1;jettySize=auto;html=1;exitX=1;exitY=1;exitDx=0;exitDy=0;entryX=0;entryY=0.5;entryDx=0;entryDy=0;" edge="1" parent="Z0kGMV7HuKqx4YH1Jn0N-1" source="gnlTn843PNFMBwR6q5YU-48" target="gnlTn843PNFMBwR6q5YU-81">
          <mxGeometry relative="1" as="geometry" />
        </mxCell>
        <mxCell id="gnlTn843PNFMBwR6q5YU-47" style="edgeStyle=orthogonalEdgeStyle;rounded=0;orthogonalLoop=1;jettySize=auto;html=1;exitX=0.5;exitY=1;exitDx=0;exitDy=0;entryX=0;entryY=0.5;entryDx=0;entryDy=0;" edge="1" parent="Z0kGMV7HuKqx4YH1Jn0N-1" source="gnlTn843PNFMBwR6q5YU-48" target="gnlTn843PNFMBwR6q5YU-82">
          <mxGeometry relative="1" as="geometry" />
        </mxCell>
        <mxCell id="gnlTn843PNFMBwR6q5YU-48" value="Manage accounts" style="ellipse;whiteSpace=wrap;html=1;" vertex="1" parent="Z0kGMV7HuKqx4YH1Jn0N-1">
          <mxGeometry x="1070" y="1680" width="120" height="80" as="geometry" />
        </mxCell>
        <mxCell id="gnlTn843PNFMBwR6q5YU-49" value="Put product on sale" style="ellipse;whiteSpace=wrap;html=1;fillColor=#dae8fc;strokeColor=#6c8ebf;" vertex="1" parent="Z0kGMV7HuKqx4YH1Jn0N-1">
          <mxGeometry x="1070" y="2070" width="120" height="80" as="geometry" />
        </mxCell>
        <mxCell id="gnlTn843PNFMBwR6q5YU-50" value="Sign in" style="ellipse;whiteSpace=wrap;html=1;fillColor=#dae8fc;strokeColor=#6c8ebf;" vertex="1" parent="Z0kGMV7HuKqx4YH1Jn0N-1">
          <mxGeometry x="315" y="1200" width="120" height="60" as="geometry" />
        </mxCell>
        <mxCell id="gnlTn843PNFMBwR6q5YU-51" value="Guest" style="shape=umlActor;verticalLabelPosition=bottom;verticalAlign=top;html=1;" vertex="1" parent="Z0kGMV7HuKqx4YH1Jn0N-1">
          <mxGeometry x="230" y="200" width="30" height="60" as="geometry" />
        </mxCell>
        <mxCell id="gnlTn843PNFMBwR6q5YU-52" style="edgeStyle=orthogonalEdgeStyle;rounded=0;orthogonalLoop=1;jettySize=auto;html=1;entryX=0;entryY=0.5;entryDx=0;entryDy=0;" edge="1" parent="Z0kGMV7HuKqx4YH1Jn0N-1" source="gnlTn843PNFMBwR6q5YU-58" target="gnlTn843PNFMBwR6q5YU-50">
          <mxGeometry relative="1" as="geometry">
            <Array as="points">
              <mxPoint x="135" y="1230" />
            </Array>
          </mxGeometry>
        </mxCell>
        <mxCell id="gnlTn843PNFMBwR6q5YU-53" style="edgeStyle=orthogonalEdgeStyle;rounded=0;orthogonalLoop=1;jettySize=auto;html=1;entryX=0;entryY=0.5;entryDx=0;entryDy=0;" edge="1" parent="Z0kGMV7HuKqx4YH1Jn0N-1" source="gnlTn843PNFMBwR6q5YU-58" target="gnlTn843PNFMBwR6q5YU-59">
          <mxGeometry relative="1" as="geometry">
            <Array as="points">
              <mxPoint x="135" y="1320" />
            </Array>
          </mxGeometry>
        </mxCell>
        <mxCell id="gnlTn843PNFMBwR6q5YU-54" style="edgeStyle=orthogonalEdgeStyle;rounded=0;orthogonalLoop=1;jettySize=auto;html=1;" edge="1" parent="Z0kGMV7HuKqx4YH1Jn0N-1" source="gnlTn843PNFMBwR6q5YU-58" target="gnlTn843PNFMBwR6q5YU-60">
          <mxGeometry relative="1" as="geometry">
            <Array as="points">
              <mxPoint x="135" y="1475" />
            </Array>
          </mxGeometry>
        </mxCell>
        <mxCell id="gnlTn843PNFMBwR6q5YU-55" style="edgeStyle=orthogonalEdgeStyle;rounded=0;orthogonalLoop=1;jettySize=auto;html=1;entryX=0;entryY=0.5;entryDx=0;entryDy=0;" edge="1" parent="Z0kGMV7HuKqx4YH1Jn0N-1" source="gnlTn843PNFMBwR6q5YU-58" target="gnlTn843PNFMBwR6q5YU-61">
          <mxGeometry relative="1" as="geometry">
            <Array as="points">
              <mxPoint x="135" y="1570" />
            </Array>
          </mxGeometry>
        </mxCell>
        <mxCell id="gnlTn843PNFMBwR6q5YU-56" style="edgeStyle=orthogonalEdgeStyle;rounded=0;orthogonalLoop=1;jettySize=auto;html=1;entryX=0;entryY=0.5;entryDx=0;entryDy=0;" edge="1" parent="Z0kGMV7HuKqx4YH1Jn0N-1" source="gnlTn843PNFMBwR6q5YU-58" target="gnlTn843PNFMBwR6q5YU-64">
          <mxGeometry relative="1" as="geometry" />
        </mxCell>
        <mxCell id="gnlTn843PNFMBwR6q5YU-57" style="edgeStyle=orthogonalEdgeStyle;rounded=0;orthogonalLoop=1;jettySize=auto;html=1;" edge="1" parent="Z0kGMV7HuKqx4YH1Jn0N-1" source="gnlTn843PNFMBwR6q5YU-58" target="gnlTn843PNFMBwR6q5YU-65">
          <mxGeometry relative="1" as="geometry">
            <Array as="points">
              <mxPoint x="135" y="1530" />
              <mxPoint x="560" y="1530" />
            </Array>
          </mxGeometry>
        </mxCell>
        <mxCell id="gnlTn843PNFMBwR6q5YU-58" value="Guest" style="shape=umlActor;verticalLabelPosition=bottom;verticalAlign=top;html=1;" vertex="1" parent="Z0kGMV7HuKqx4YH1Jn0N-1">
          <mxGeometry x="120" y="1380" width="30" height="60" as="geometry" />
        </mxCell>
        <mxCell id="gnlTn843PNFMBwR6q5YU-59" value="Sign up" style="ellipse;whiteSpace=wrap;html=1;fillColor=#dae8fc;strokeColor=#6c8ebf;" vertex="1" parent="Z0kGMV7HuKqx4YH1Jn0N-1">
          <mxGeometry x="330" y="1290" width="120" height="60" as="geometry" />
        </mxCell>
        <mxCell id="gnlTn843PNFMBwR6q5YU-60" value="View products" style="ellipse;whiteSpace=wrap;html=1;fillColor=#dae8fc;strokeColor=#6c8ebf;" vertex="1" parent="Z0kGMV7HuKqx4YH1Jn0N-1">
          <mxGeometry x="310" y="1445" width="120" height="60" as="geometry" />
        </mxCell>
        <mxCell id="gnlTn843PNFMBwR6q5YU-61" value="View product details" style="ellipse;whiteSpace=wrap;html=1;fillColor=#dae8fc;strokeColor=#6c8ebf;" vertex="1" parent="Z0kGMV7HuKqx4YH1Jn0N-1">
          <mxGeometry x="320" y="1540" width="120" height="60" as="geometry" />
        </mxCell>
        <mxCell id="gnlTn843PNFMBwR6q5YU-62" style="edgeStyle=orthogonalEdgeStyle;rounded=0;orthogonalLoop=1;jettySize=auto;html=1;exitX=1;exitY=0;exitDx=0;exitDy=0;entryX=0;entryY=0.5;entryDx=0;entryDy=0;" edge="1" parent="Z0kGMV7HuKqx4YH1Jn0N-1" source="gnlTn843PNFMBwR6q5YU-64" target="gnlTn843PNFMBwR6q5YU-66">
          <mxGeometry relative="1" as="geometry" />
        </mxCell>
        <mxCell id="gnlTn843PNFMBwR6q5YU-63" style="edgeStyle=orthogonalEdgeStyle;rounded=0;orthogonalLoop=1;jettySize=auto;html=1;exitX=1;exitY=1;exitDx=0;exitDy=0;entryX=0;entryY=0.5;entryDx=0;entryDy=0;" edge="1" parent="Z0kGMV7HuKqx4YH1Jn0N-1" source="gnlTn843PNFMBwR6q5YU-64" target="gnlTn843PNFMBwR6q5YU-67">
          <mxGeometry relative="1" as="geometry" />
        </mxCell>
        <mxCell id="gnlTn843PNFMBwR6q5YU-64" value="Search product" style="ellipse;whiteSpace=wrap;html=1;fillColor=#dae8fc;strokeColor=#6c8ebf;" vertex="1" parent="Z0kGMV7HuKqx4YH1Jn0N-1">
          <mxGeometry x="410" y="1375" width="140" height="70" as="geometry" />
        </mxCell>
        <mxCell id="gnlTn843PNFMBwR6q5YU-65" value="Sort product" style="ellipse;whiteSpace=wrap;html=1;fillColor=#dae8fc;strokeColor=#6c8ebf;" vertex="1" parent="Z0kGMV7HuKqx4YH1Jn0N-1">
          <mxGeometry x="530" y="1490" width="140" height="70" as="geometry" />
        </mxCell>
        <mxCell id="gnlTn843PNFMBwR6q5YU-66" value="Search by name" style="ellipse;whiteSpace=wrap;html=1;" vertex="1" parent="Z0kGMV7HuKqx4YH1Jn0N-1">
          <mxGeometry x="590" y="1300" width="120" height="80" as="geometry" />
        </mxCell>
        <mxCell id="gnlTn843PNFMBwR6q5YU-67" value="Search by category" style="ellipse;whiteSpace=wrap;html=1;" vertex="1" parent="Z0kGMV7HuKqx4YH1Jn0N-1">
          <mxGeometry x="590" y="1410" width="120" height="80" as="geometry" />
        </mxCell>
        <mxCell id="gnlTn843PNFMBwR6q5YU-68" value="View personal info" style="ellipse;whiteSpace=wrap;html=1;fillColor=#dae8fc;strokeColor=#6c8ebf;" vertex="1" parent="Z0kGMV7HuKqx4YH1Jn0N-1">
          <mxGeometry x="1320" y="85" width="140" height="70" as="geometry" />
        </mxCell>
        <mxCell id="gnlTn843PNFMBwR6q5YU-69" value="Edit personal info" style="ellipse;whiteSpace=wrap;html=1;fillColor=#dae8fc;strokeColor=#6c8ebf;" vertex="1" parent="Z0kGMV7HuKqx4YH1Jn0N-1">
          <mxGeometry x="1400" y="185" width="140" height="70" as="geometry" />
        </mxCell>
        <mxCell id="gnlTn843PNFMBwR6q5YU-70" value="View cart" style="ellipse;whiteSpace=wrap;html=1;fillColor=#dae8fc;strokeColor=#6c8ebf;" vertex="1" parent="Z0kGMV7HuKqx4YH1Jn0N-1">
          <mxGeometry x="1320" y="725" width="140" height="70" as="geometry" />
        </mxCell>
        <mxCell id="gnlTn843PNFMBwR6q5YU-71" value="Add item to cart" style="ellipse;whiteSpace=wrap;html=1;fillColor=#dae8fc;strokeColor=#6c8ebf;" vertex="1" parent="Z0kGMV7HuKqx4YH1Jn0N-1">
          <mxGeometry x="1450" y="290" width="140" height="70" as="geometry" />
        </mxCell>
        <mxCell id="gnlTn843PNFMBwR6q5YU-72" value="Sort product" style="ellipse;whiteSpace=wrap;html=1;fillColor=#d5e8d4;strokeColor=#82b366;" vertex="1" parent="Z0kGMV7HuKqx4YH1Jn0N-1">
          <mxGeometry x="1270" y="395" width="140" height="70" as="geometry" />
        </mxCell>
        <mxCell id="gnlTn843PNFMBwR6q5YU-73" value="View orders" style="ellipse;whiteSpace=wrap;html=1;" vertex="1" parent="Z0kGMV7HuKqx4YH1Jn0N-1">
          <mxGeometry x="425" y="1675" width="140" height="70" as="geometry" />
        </mxCell>
        <mxCell id="gnlTn843PNFMBwR6q5YU-74" value="View order details" style="ellipse;whiteSpace=wrap;html=1;fillColor=#dae8fc;strokeColor=#6c8ebf;" vertex="1" parent="Z0kGMV7HuKqx4YH1Jn0N-1">
          <mxGeometry x="430" y="1780" width="140" height="70" as="geometry" />
        </mxCell>
        <mxCell id="gnlTn843PNFMBwR6q5YU-75" value="View products" style="ellipse;whiteSpace=wrap;html=1;fillColor=#d5e8d4;strokeColor=#82b366;" vertex="1" parent="Z0kGMV7HuKqx4YH1Jn0N-1">
          <mxGeometry x="1270" y="1270" width="140" height="70" as="geometry" />
        </mxCell>
        <mxCell id="gnlTn843PNFMBwR6q5YU-76" value="View product details" style="ellipse;whiteSpace=wrap;html=1;fillColor=#d5e8d4;strokeColor=#82b366;" vertex="1" parent="Z0kGMV7HuKqx4YH1Jn0N-1">
          <mxGeometry x="1270" y="1360" width="140" height="70" as="geometry" />
        </mxCell>
        <mxCell id="gnlTn843PNFMBwR6q5YU-77" value="Edit product details" style="ellipse;whiteSpace=wrap;html=1;fillColor=#dae8fc;strokeColor=#6c8ebf;" vertex="1" parent="Z0kGMV7HuKqx4YH1Jn0N-1">
          <mxGeometry x="1280" y="1450" width="140" height="70" as="geometry" />
        </mxCell>
        <mxCell id="gnlTn843PNFMBwR6q5YU-78" value="Delete product" style="ellipse;whiteSpace=wrap;html=1;fillColor=#dae8fc;strokeColor=#6c8ebf;" vertex="1" parent="Z0kGMV7HuKqx4YH1Jn0N-1">
          <mxGeometry x="1280" y="1550" width="140" height="70" as="geometry" />
        </mxCell>
        <mxCell id="gnlTn843PNFMBwR6q5YU-79" value="View accounts" style="ellipse;whiteSpace=wrap;html=1;fillColor=#dae8fc;strokeColor=#6c8ebf;" vertex="1" parent="Z0kGMV7HuKqx4YH1Jn0N-1">
          <mxGeometry x="1280" y="1650" width="140" height="70" as="geometry" />
        </mxCell>
        <mxCell id="gnlTn843PNFMBwR6q5YU-80" value="View account details" style="ellipse;whiteSpace=wrap;html=1;fillColor=#dae8fc;strokeColor=#6c8ebf;" vertex="1" parent="Z0kGMV7HuKqx4YH1Jn0N-1">
          <mxGeometry x="1290" y="1730" width="140" height="70" as="geometry" />
        </mxCell>
        <mxCell id="gnlTn843PNFMBwR6q5YU-81" value="Edit account details" style="ellipse;whiteSpace=wrap;html=1;fillColor=#dae8fc;strokeColor=#6c8ebf;" vertex="1" parent="Z0kGMV7HuKqx4YH1Jn0N-1">
          <mxGeometry x="1290" y="1820" width="140" height="70" as="geometry" />
        </mxCell>
        <mxCell id="gnlTn843PNFMBwR6q5YU-82" value="Delete account" style="ellipse;whiteSpace=wrap;html=1;fillColor=#dae8fc;strokeColor=#6c8ebf;" vertex="1" parent="Z0kGMV7HuKqx4YH1Jn0N-1">
          <mxGeometry x="1290" y="1910" width="140" height="70" as="geometry" />
        </mxCell>
        <mxCell id="gnlTn843PNFMBwR6q5YU-83" style="edgeStyle=orthogonalEdgeStyle;rounded=0;orthogonalLoop=1;jettySize=auto;html=1;exitX=1;exitY=0;exitDx=0;exitDy=0;entryX=0;entryY=0.5;entryDx=0;entryDy=0;" edge="1" parent="Z0kGMV7HuKqx4YH1Jn0N-1" source="gnlTn843PNFMBwR6q5YU-85" target="gnlTn843PNFMBwR6q5YU-87">
          <mxGeometry relative="1" as="geometry" />
        </mxCell>
        <mxCell id="gnlTn843PNFMBwR6q5YU-84" style="edgeStyle=orthogonalEdgeStyle;rounded=0;orthogonalLoop=1;jettySize=auto;html=1;exitX=1;exitY=1;exitDx=0;exitDy=0;entryX=0;entryY=0.5;entryDx=0;entryDy=0;" edge="1" parent="Z0kGMV7HuKqx4YH1Jn0N-1" source="gnlTn843PNFMBwR6q5YU-85" target="gnlTn843PNFMBwR6q5YU-88">
          <mxGeometry relative="1" as="geometry" />
        </mxCell>
        <mxCell id="gnlTn843PNFMBwR6q5YU-85" value="Search product" style="ellipse;whiteSpace=wrap;html=1;fillColor=#d5e8d4;strokeColor=#82b366;" vertex="1" parent="Z0kGMV7HuKqx4YH1Jn0N-1">
          <mxGeometry x="1310" y="1185" width="140" height="70" as="geometry" />
        </mxCell>
        <mxCell id="gnlTn843PNFMBwR6q5YU-86" value="Sort product" style="ellipse;whiteSpace=wrap;html=1;fillColor=#d5e8d4;strokeColor=#82b366;" vertex="1" parent="Z0kGMV7HuKqx4YH1Jn0N-1">
          <mxGeometry x="1280" y="1080" width="140" height="70" as="geometry" />
        </mxCell>
        <mxCell id="gnlTn843PNFMBwR6q5YU-87" value="Search by name" style="ellipse;whiteSpace=wrap;html=1;" vertex="1" parent="Z0kGMV7HuKqx4YH1Jn0N-1">
          <mxGeometry x="1490" y="1110" width="120" height="80" as="geometry" />
        </mxCell>
        <mxCell id="gnlTn843PNFMBwR6q5YU-88" value="Search by category" style="ellipse;whiteSpace=wrap;html=1;" vertex="1" parent="Z0kGMV7HuKqx4YH1Jn0N-1">
          <mxGeometry x="1490" y="1220" width="120" height="80" as="geometry" />
        </mxCell>
        <mxCell id="gnlTn843PNFMBwR6q5YU-89" value="" style="endArrow=classic;html=1;entryX=0;entryY=0.5;entryDx=0;entryDy=0;exitX=1;exitY=0.5;exitDx=0;exitDy=0;" edge="1" parent="Z0kGMV7HuKqx4YH1Jn0N-1" source="gnlTn843PNFMBwR6q5YU-16" target="gnlTn843PNFMBwR6q5YU-71">
          <mxGeometry width="50" height="50" relative="1" as="geometry">
            <mxPoint x="1010" y="780" as="sourcePoint" />
            <mxPoint x="1060" y="730" as="targetPoint" />
          </mxGeometry>
        </mxCell>
      </root>
    </mxGraphModel>
  </diagram>
</mxfile>
